<svg xmlns="http://www.w3.org/2000/svg" width="97" height="55" viewBox="0 0 97 55"><defs><style>.a{fill:#fff;}</style></defs><g transform="translate(-202.4 -183)"><g transform="translate(227.443 190.541)"><g transform="translate(0 24.835)"><path class="a" d="M578.974,335.07H567.347V320.407h11.627v2.933h-7.856v2.827h6.18V329.1h-6.18v3.038h7.856Z" transform="translate(-507.016 -320.197)"/><path class="a" d="M504.336,332.033q5.741.315,7.772.314a.975.975,0,0,0,1.048-1.046v-1.887h-4.819a3.6,3.6,0,0,1-4.189-4.189V324.6a3.6,3.6,0,0,1,4.189-4.189h7.353v2.933h-6.514a1.111,1.111,0,0,0-1.257,1.257v.419a1.111,1.111,0,0,0,1.257,1.257h3.77a3.453,3.453,0,0,1,3.98,3.98V331.3a3.452,3.452,0,0,1-3.98,3.979q-1.067,0-2.262-.041l-1.927-.085q-2.137-.105-4.42-.292Z" transform="translate(-458.482 -320.197)"/><path class="a" d="M448.574,320.407h3.771V331.09a3.6,3.6,0,0,1-4.189,4.189h-4.819a3.6,3.6,0,0,1-4.189-4.189V320.407h3.771V331.09a1.11,1.11,0,0,0,1.257,1.257h3.142a1.11,1.11,0,0,0,1.256-1.257Z" transform="translate(-408.565 -320.197)"/><path class="a" d="M385.057,330.393a3.6,3.6,0,0,1-4.189,4.189h-5.237a3.6,3.6,0,0,1-4.191-4.189v-6.7a3.6,3.6,0,0,1,4.191-4.191h5.237a3.6,3.6,0,0,1,4.189,4.191Zm-3.771-6.7a1.111,1.111,0,0,0-1.257-1.258h-3.561a1.112,1.112,0,0,0-1.257,1.258v6.7a1.111,1.111,0,0,0,1.257,1.257h3.561a1.11,1.11,0,0,0,1.257-1.257Z" transform="translate(-356.568 -319.5)"/><path class="a" d="M320.125,335.07h-3.77V329.1h-5.237v5.97h-3.771V320.407h3.771v5.76h5.237v-5.76h3.77Z" transform="translate(-307.347 -320.197)"/></g><path class="a" d="M426,215.5h4.037l3.506,7.223,3.5-7.223h4.037l-5.63,10.941v3.93h-3.825v-3.93Z" transform="translate(-398.466 -215.5)"/><path class="a" d="M375.259,230.371h-3.825V215.5h3.825v5.842h1.912l3.314-5.842h4.037l-4.164,7.329,4.143,7.541h-4.037l-3.293-6.055h-1.912Z" transform="translate(-356.563 -215.5)"/><path class="a" d="M307.538,227.29q5.822.32,7.882.319a.989.989,0,0,0,1.063-1.061v-1.913H311.6a3.65,3.65,0,0,1-4.248-4.248v-.637A3.65,3.65,0,0,1,311.6,215.5h7.457v2.974h-6.606a1.126,1.126,0,0,0-1.274,1.275v.425a1.126,1.126,0,0,0,1.274,1.275h3.823a3.5,3.5,0,0,1,4.037,4.037v1.063a3.5,3.5,0,0,1-4.037,4.035q-1.082,0-2.294-.042l-1.955-.086q-2.167-.107-4.483-.3Z" transform="translate(-307.347 -215.5)"/></g><g transform="translate(202.4 183)"><path class="a" d="M217.483,339,202.4,354.083V357.1l15.083-15.083Z" transform="translate(-202.4 -302.099)"/><path class="a" d="M217.483,313,202.4,328.083V331.1l15.083-15.083Z" transform="translate(-202.4 -282.132)"/><path class="a" d="M217.483,247.347l-4.525-4.63,4.525-4.63V235L202.4,250.434v3.087l4.525,4.63-4.525,4.63v3.087l15.083-15.434Zm-9.05,9.26-4.525-4.63,1.508-1.543,4.525,4.63Zm3.017-3.087-4.525-4.63,1.508-1.543,4.525,4.63Zm3.017-3.087-4.525-4.63,1.508-1.543,4.525,4.63Z" transform="translate(-202.4 -222.934)"/><path class="a" d="M217.483,209,202.4,224.083V227.1l15.083-15.083Z" transform="translate(-202.4 -202.967)"/><path class="a" d="M217.483,183,202.4,198.083V201.1l15.083-15.083Z" transform="translate(-202.4 -183)"/></g></g></svg>